<svg width="159" height="28" viewBox="0 0 159 28" fill="none" xmlns="http://www.w3.org/2000/svg">
<path d="M15.948 17.248V20.524C15.948 21.424 15.516 22 14.508 22H6.66C2.772 22 0.756 20.092 0.756 16.096V10.336C0.756 6.34 2.772 4.396 6.66 4.396H10.044C14.076 4.396 15.948 6.232 15.948 10.156V12.028C15.948 13.108 15.264 13.576 14.184 13.576H13.896C12.852 13.576 12.168 13.108 12.168 11.884V9.868C12.168 8.32 11.304 7.708 10.008 7.708H9.432C8.064 7.708 7.308 8.5 7.308 9.868V13.612C7.308 15.052 8.064 15.772 9.432 15.772H14.508C15.408 15.772 15.948 16.348 15.948 17.248ZM32.8179 10.3V12.892C32.8179 13.972 32.1339 14.62 31.0539 14.62H30.7659C29.7219 14.62 29.0379 14.116 29.0379 12.892V10.012C29.0379 8.5 28.1739 7.852 26.8779 7.852C25.4739 7.852 24.7179 8.644 24.7179 10.012V19.768C24.7179 21.28 23.9259 22 22.4859 22H20.2179C18.7419 22 17.9859 21.28 17.9859 19.768V6.664C17.9859 5.152 18.7419 4.396 20.2179 4.396H26.9139C30.9459 4.396 32.8179 6.376 32.8179 10.3ZM49.3138 10.336V16.096C49.3138 20.056 47.5498 22 43.4458 22H40.0258C36.1738 22 34.1578 20.056 34.1578 16.096V10.336C34.1578 6.376 36.1738 4.396 40.0258 4.396H43.4458C47.4778 4.396 49.3138 6.376 49.3138 10.336ZM43.1218 13.684V9.832C43.1218 8.284 42.2578 7.672 40.9618 7.672H40.0258C38.6938 7.672 37.9018 8.464 37.9018 9.832V13.684C37.9018 15.16 38.6578 15.844 40.0258 15.844H40.9618C42.2578 15.844 43.1218 15.196 43.1218 13.684ZM75.0783 6.196V16.096C75.0783 20.056 73.2423 22 69.2103 22H53.6943C52.2183 22 51.4263 21.28 51.4263 19.768V6.7C51.4263 5.188 52.2183 4.396 53.6583 4.396H55.9263C57.3663 4.396 58.1583 5.188 58.1583 6.7V13.648C58.1583 15.016 58.9503 15.808 60.3183 15.808H60.6783C61.9743 15.808 62.8383 15.196 62.8383 13.648V6.196C62.8383 4.972 63.5223 4.396 64.5663 4.396H64.8543C65.9343 4.396 66.6183 5.08 66.6183 6.196V16.708C66.6183 18.076 67.4103 18.868 68.7783 18.868H69.1383C70.4703 18.868 71.2983 18.256 71.2983 16.708V6.196C71.2983 4.972 72.0183 4.396 73.0263 4.396H73.3503C74.4303 4.396 75.0783 5.08 75.0783 6.196ZM92.5318 2.344V16.096C92.5318 20.092 90.5158 22 86.6278 22H83.2438C79.2118 22 77.3398 20.056 77.3398 16.096V10.372C77.3398 6.412 79.2118 4.396 83.2438 4.396H84.1078C85.3318 4.396 85.7998 3.748 85.7998 2.668V2.344C85.7998 0.832 86.4838 0.111999 88.0318 0.111999H90.2638C91.7398 0.111999 92.5318 0.832 92.5318 2.344ZM88.8598 16.42V12.532C88.8598 10.984 87.9958 10.372 86.6998 10.372H85.7998C84.4318 10.372 83.6398 11.164 83.6398 12.532V16.42C83.6398 17.896 84.4318 18.58 85.7998 18.58H86.6998C87.9958 18.58 88.8598 17.932 88.8598 16.42ZM109.793 10.372V25.096C109.793 26.608 109.037 27.328 107.561 27.328H105.329C103.853 27.328 103.061 26.608 103.097 25.096V23.692C103.097 22.612 102.593 21.928 101.369 21.928H100.541C96.5087 21.928 94.6367 19.948 94.6367 16.024V10.372C94.6367 6.412 96.4727 4.396 100.505 4.396H103.925C107.813 4.396 109.793 6.412 109.793 10.372ZM106.265 16.564V9.868C106.265 8.32 105.401 7.708 104.141 7.708H103.349C101.981 7.708 101.189 8.5 101.189 9.868V16.564C101.189 18.004 101.981 18.724 103.349 18.724H104.141C105.401 18.724 106.265 18.04 106.265 16.564ZM133.182 5.728V6.052C133.182 7.132 132.498 7.78 131.418 7.78H131.13C130.086 7.78 129.402 7.276 129.402 6.052V5.404C129.402 3.856 128.538 3.244 127.242 3.244H126.918C125.55 3.244 124.794 4.036 124.794 5.404V6.088C124.794 7.744 125.73 8.86 128.034 8.86H130.878C131.994 8.86 132.606 9.544 132.606 10.624V10.948C132.606 11.956 132.102 12.64 130.878 12.64H129.438C128.214 12.64 127.71 13.324 127.71 14.404L127.746 19.768C127.746 21.28 126.954 22 125.514 22H123.246C121.77 22 121.014 21.28 121.014 19.768V6.016C121.014 2.056 123.03 0.111999 126.918 0.111999H127.278C131.31 0.111999 133.182 1.768 133.182 5.728ZM158.486 10.3V20.272C158.486 21.388 157.838 22 156.758 22H156.434C155.39 22 154.706 21.496 154.706 20.272V13.036C154.706 11.524 153.878 10.876 152.546 10.876H152.186C150.818 10.876 150.026 11.668 150.026 13.036V20.272C150.026 21.388 149.342 22 148.262 22H147.974C146.93 22 146.246 21.496 146.246 20.272V9.868C146.246 8.32 145.382 7.708 144.086 7.708H143.69C142.322 7.708 141.566 8.5 141.566 9.868V19.768C141.566 21.28 140.774 22 139.334 22H137.066C135.59 22 134.834 21.28 134.834 19.768V6.664C134.834 5.152 135.59 4.396 137.066 4.396H152.618C156.65 4.396 158.486 6.376 158.486 10.3Z" fill="#808081"/>
<path d="M118.742 17.932V19.768C118.742 21.28 117.986 22 116.51 22H114.278C112.802 22 112.046 21.28 112.046 19.768V17.932C112.046 16.348 112.838 15.556 114.386 15.556H116.402C117.95 15.556 118.742 16.348 118.742 17.932Z" fill="#39CFAC"/>
</svg>
