<svg xmlns="http://www.w3.org/2000/svg" fill="none" viewBox="0 0 48 48"><g id="link-share-2--create-hyperlink-link-make-unlink-square"><path id="Union" fill="currentColor" fill-rule="evenodd" d="M42.19 15.79c1.9 1.738 4.356.796 4.562-1.77a87.31 87.31 0 0 0 .212-3.678c.123-3.262-.09-5.392-.33-6.702a2.775 2.775 0 0 0-2.274-2.274c-1.31-.24-3.44-.454-6.702-.33a87.543 87.543 0 0 0-3.676.212c-2.566.207-3.51 2.663-1.772 4.563a123.8 123.8 0 0 0 2.175 2.315A1157.759 1157.759 0 0 0 20.96 21.874c-.95.989-1.343 2.433-.54 3.544a9.88 9.88 0 0 0 2.142 2.149c1.12.814 2.58.41 3.572-.558 2.549-2.485 7.856-7.67 13.697-13.437.9.867 1.683 1.6 2.36 2.219ZM8.026 6.94c2.906-.222 7.325-.44 13.474-.44 1.65 0 3.176.016 4.582.043a1.5 1.5 0 0 1 1.043 2.548 778.512 778.512 0 0 0-3.837 3.951 1.5 1.5 0 0 1-1.086.46c-.23-.002-.465-.002-.702-.002-4.145 0-7.258.128-9.449.272-1.807.119-3.16 1.472-3.279 3.28-.144 2.19-.272 5.303-.272 9.448 0 4.145.128 7.258.272 9.449.119 1.807 1.472 3.16 3.28 3.279 2.19.144 5.303.272 9.448.272 4.145 0 7.258-.128 9.449-.272 1.807-.119 3.16-1.472 3.279-3.28.144-2.19.272-5.303.272-9.448 0-.32 0-.635-.002-.943a1.5 1.5 0 0 1 .456-1.084 1337.4 1337.4 0 0 0 3.95-3.843 1.5 1.5 0 0 1 2.548 1.042c.03 1.473.048 3.08.048 4.828 0 6.148-.218 10.568-.44 13.474-.25 3.295-2.791 5.836-6.086 6.087-2.906.221-7.325.439-13.474.439s-10.568-.218-13.474-.44c-3.295-.25-5.836-2.791-6.087-6.086C1.718 37.068 1.5 32.649 1.5 26.5c0-6.148.218-10.568.44-13.474.25-3.295 2.79-5.836 6.085-6.086Z" clip-rule="evenodd"></path></g></svg>
