<?xml version="1.0" encoding="UTF-8"?>
<svg xmlns="http://www.w3.org/2000/svg" xmlns:xlink="http://www.w3.org/1999/xlink" width="22.5pt" height="22.5pt" viewBox="0 0 22.5 22.5" version="1.1">
<g id="surface239">
<path style=" stroke:none;fill-rule:nonzero;fill:rgb(9.019608%,9.019608%,9.411765%);fill-opacity:1;" d="M 20.535156 5.085938 C 19.832031 5.398438 19.078125 5.609375 18.285156 5.703125 C 19.09375 5.21875 19.714844 4.453125 20.007812 3.539062 C 19.25 3.988281 18.414062 4.3125 17.523438 4.488281 C 16.808594 3.726562 15.792969 3.253906 14.667969 3.253906 C 12.507812 3.253906 10.753906 5.003906 10.753906 7.164062 C 10.753906 7.472656 10.789062 7.769531 10.855469 8.054688 C 7.605469 7.894531 4.722656 6.335938 2.792969 3.96875 C 2.457031 4.546875 2.265625 5.21875 2.265625 5.9375 C 2.265625 7.292969 2.953125 8.488281 4.003906 9.191406 C 3.363281 9.171875 2.757812 8.996094 2.230469 8.703125 C 2.230469 8.71875 2.230469 8.734375 2.230469 8.75 C 2.230469 10.648438 3.582031 12.226562 5.371094 12.585938 C 5.042969 12.675781 4.695312 12.722656 4.339844 12.722656 C 4.085938 12.722656 3.84375 12.699219 3.605469 12.652344 C 4.101562 14.207031 5.546875 15.339844 7.257812 15.371094 C 5.917969 16.421875 4.234375 17.046875 2.398438 17.046875 C 2.085938 17.046875 1.773438 17.027344 1.464844 16.992188 C 3.199219 18.101562 5.253906 18.746094 7.460938 18.746094 C 14.65625 18.746094 18.589844 12.789062 18.589844 7.617188 C 18.589844 7.449219 18.585938 7.28125 18.582031 7.113281 C 19.34375 6.558594 20.007812 5.871094 20.535156 5.085938 Z M 20.535156 5.085938 "/>
</g>
</svg>
